<?xml version="1.0" standalone="no"?>
<!DOCTYPE svg PUBLIC "-//W3C//DTD SVG 20010904//EN"
 "http://www.w3.org/TR/2001/REC-SVG-20010904/DTD/svg10.dtd">
<svg version="1.0" xmlns="http://www.w3.org/2000/svg"
 width="225.000000pt" height="225.000000pt" viewBox="0 0 225.000000 225.000000"
 preserveAspectRatio="xMidYMid meet">

<g transform="translate(0.000000,225.000000) scale(0.100000,-0.100000)"
fill="#000000" stroke="none">
<path d="M1943 2040 c-40 -4 -107 -15 -148 -25 -86 -19 -85 -15 -39 -112 31
-66 111 -137 183 -164 29 -11 56 -18 58 -15 9 9 42 195 45 256 3 74 8 71 -99
60z"/>
<path d="M1590 1956 c-396 -161 -674 -455 -854 -901 -20 -49 -36 -94 -36 -100
0 -5 56 -66 124 -134 l124 -123 53 17 c30 10 110 44 179 77 297 141 529 344
673 590 51 86 115 227 123 268 6 26 3 29 -30 39 -111 30 -234 155 -260 264 -8
33 -22 33 -96 3z m-72 -393 c49 -37 67 -71 67 -128 0 -66 -23 -101 -88 -134
-79 -39 -162 -7 -199 75 -23 54 -19 94 15 145 45 68 144 88 205 42z"/>
<path d="M760 1470 c-154 -28 -295 -113 -398 -243 -57 -72 -121 -176 -142
-232 l-10 -27 32 20 c64 40 154 80 226 102 58 18 91 22 155 18 l82 -4 50 105
c28 58 71 138 98 178 26 41 47 77 47 82 0 10 -84 11 -140 1z"/>
<path d="M613 924 c-4 -11 39 -61 148 -170 136 -137 155 -152 169 -139 13 14
-3 32 -140 170 -85 85 -158 155 -163 155 -4 0 -10 -7 -14 -16z"/>
<path d="M1399 860 c-54 -37 -235 -132 -274 -144 -18 -5 -20 -13 -16 -91 4
-105 -19 -189 -89 -323 -27 -50 -46 -92 -43 -92 20 0 178 95 244 147 154 122
237 273 254 461 8 97 6 98 -76 42z"/>
<path d="M327 782 c-89 -90 -116 -132 -84 -132 20 0 220 206 213 219 -14 22
-33 9 -129 -87z"/>
<path d="M602 777 l-32 -33 88 -87 88 -87 34 35 34 35 -84 85 c-47 47 -87 85
-90 85 -3 0 -20 -15 -38 -33z"/>
<path d="M341 585 c-84 -86 -102 -115 -68 -115 16 0 197 182 197 198 0 32 -44
4 -129 -83z"/>
<path d="M424 451 c-176 -175 -168 -166 -150 -180 12 -10 39 12 161 135 80 81
144 152 142 157 -8 26 -32 9 -153 -112z"/>
<path d="M562 377 c-90 -90 -103 -109 -82 -122 15 -9 200 174 200 197 0 34
-25 18 -118 -75z"/>
<path d="M752 357 c-101 -102 -118 -127 -84 -127 26 0 216 194 209 214 -4 9
-10 16 -14 16 -5 0 -54 -46 -111 -103z"/>
</g>
</svg>
